<?xml version="1.0" encoding="utf-8"?>
<!-- Generator: Adobe Illustrator 23.0.0, SVG Export Plug-In . SVG Version: 6.00 Build 0)  -->
<svg version="1.1" id="Layer_1" xmlns="http://www.w3.org/2000/svg" xmlns:xlink="http://www.w3.org/1999/xlink" x="0px" y="0px"
	 viewBox="0 0 80 64" style="enable-background:new 0 0 80 64;" xml:space="preserve">
<style type="text/css">
	.st0{fill:#84B38F;}
	.st1{opacity:0.65;}
	.st2{fill:#1D8BB2;}
	.st3{opacity:0.65;fill:#1D8BB2;enable-background:new    ;}
</style>
<g>
	<g>
		<g>
			<path class="st0" d="M76.63,2.47c2.56,0.79,3.89,3.48,2.95,5.99L61.13,58.11c-0.93,2.51-3.88,4.56-6.56,4.56h-3.89
				c-2.67,0-5.8-1.98-6.95-4.39L35.42,40.8c-1.15-2.42,0.04-4.89,2.65-5.5l0.9-0.21c2.6-0.61,5.36,0.99,6.13,3.55l2.89,9.65
				c0.77,2.56,2.2,4.73,3.18,4.82c0.98,0.09,2.52-1.9,3.41-4.42L69.96,5.5c0.9-2.52,3.72-3.94,6.28-3.15L76.63,2.47z"/>
		</g>
	</g>
	<g class="st1">
		<path class="st2" d="M3.13,2.47C0.57,3.26-0.76,5.95,0.17,8.46l18.45,49.65c0.93,2.51,3.88,4.56,6.56,4.56h3.89
			c2.67,0,5.8-1.98,6.95-4.39l8.31-17.48c1.15-2.42-0.04-4.89-2.65-5.5l-0.9-0.21c-2.6-0.61-5.36,0.99-6.13,3.55l-2.89,9.65
			c-0.77,2.56-2.2,4.73-3.18,4.82c-0.98,0.09-2.52-1.9-3.41-4.42L9.8,5.5C8.9,2.98,6.07,1.56,3.52,2.35L3.13,2.47z"/>
	</g>
	<g>
		<path class="st3" d="M33.32,7.54l5.08,10.49c0,2.63,2.13,4.77,4.77,4.77C45.8,22.79,33.32,10.18,33.32,7.54z"/>
		<path class="st0" d="M33.32,7.54l5.08,10.49c0-2.63,2.13-4.77,4.77-4.77C45.8,13.26,33.32,4.91,33.32,7.54z"/>
	</g>
</g>
</svg>
