<?xml version="1.0" encoding="utf-8"?>
<!-- Generator: Adobe Illustrator 23.0.0, SVG Export Plug-In . SVG Version: 6.00 Build 0)  -->
<svg version="1.1" id="Layer_1" xmlns="http://www.w3.org/2000/svg" xmlns:xlink="http://www.w3.org/1999/xlink" x="0px" y="0px"
	 viewBox="0 0 82 21" style="enable-background:new 0 0 82 21;" xml:space="preserve">
<style type="text/css">
	.st0{fill:#84B38F;}
	.st1{opacity:0.65;}
	.st2{fill:#1D8BB2;}
	.st3{opacity:0.65;fill:#1D8BB2;enable-background:new    ;}
	.st4{font-family:'ChaletComprime-CologneSeventy';}
	.st5{font-size:22.632px;}
	.st6{fill:#FFFFFF;}
</style>
<g>
	<g>
		<g>
			<path class="st0" d="M25.91,0.31c0.86,0.27,1.31,1.17,1,2.02l-6.22,16.74c-0.31,0.85-1.31,1.54-2.21,1.54h-1.31
				c-0.9,0-1.96-0.67-2.34-1.48l-2.8-5.89c-0.39-0.81,0.01-1.65,0.89-1.86l0.31-0.07c0.88-0.21,1.81,0.33,2.07,1.2l0.97,3.25
				c0.26,0.86,0.74,1.6,1.07,1.63c0.33,0.03,0.85-0.64,1.15-1.49l5.19-14.56c0.3-0.85,1.26-1.33,2.12-1.06L25.91,0.31z"/>
		</g>
	</g>
	<g class="st1">
		<path class="st2" d="M1.13,0.31c-0.86,0.27-1.31,1.17-1,2.02l6.22,16.74c0.31,0.85,1.31,1.54,2.21,1.54h1.31
			c0.9,0,1.96-0.67,2.34-1.48l2.8-5.89c0.39-0.81-0.01-1.65-0.89-1.86l-0.31-0.07c-0.88-0.21-1.81,0.33-2.07,1.2l-0.97,3.25
			c-0.26,0.86-0.74,1.6-1.07,1.63c-0.33,0.03-0.85-0.64-1.15-1.49L3.38,1.33C3.07,0.48,2.12,0,1.26,0.27L1.13,0.31z"/>
	</g>
	<g>
		<path class="st3" d="M11.31,2.02l1.71,3.54c0,0.89,0.72,1.61,1.61,1.61C15.52,7.16,11.31,2.91,11.31,2.02z"/>
		<path class="st0" d="M11.31,2.02l1.71,3.54c0-0.89,0.72-1.61,1.61-1.61C15.52,3.95,11.31,1.13,11.31,2.02z"/>
	</g>
</g>
<text transform="matrix(1 0 0 1 27.4805 19.6274)" class="st0 st4 st5">ikidevia</text>
<path class="st6" d="M30.27,4.45v1.7h-1.91v-1.7C29.45,2.63,30.27,4.45,30.27,4.45z"/>
<path class="st2" d="M30.1,4.62v1.7h-1.9v-1.7C29.28,2.79,30.1,4.62,30.1,4.62z"/>
<path class="st2" d="M41.16,4.5v1.65h-1.91V4.5C40.34,2.73,41.16,4.5,41.16,4.5z"/>
<path class="st2" d="M66.29,4.5v1.65h-1.91V4.5C65.47,2.73,66.29,4.5,66.29,4.5z"/>
</svg>
